<mxfile host="app.diagrams.net" modified="2023-02-23T08:30:01.102Z" agent="5.0 (Windows NT 10.0; Win64; x64) AppleWebKit/537.36 (KHTML, like Gecko) Chrome/110.0.0.0 Safari/537.36" etag="HZ9EkxfqQaIaClwspkcX" version="20.8.22" type="github" pages="3">
  <diagram name="pipeline" id="Gqs6H3V1GMVFEFwaefwI">
    <mxGraphModel dx="1050" dy="493" grid="1" gridSize="10" guides="1" tooltips="1" connect="1" arrows="1" fold="1" page="1" pageScale="1" pageWidth="827" pageHeight="1169" math="1" shadow="0">
      <root>
        <mxCell id="0" />
        <mxCell id="1" parent="0" />
        <mxCell id="lTj_T8A3qL2pbx2PuDj2-1" value="解码器" style="rounded=1;whiteSpace=wrap;html=1;shadow=0;glass=0;sketch=0;strokeWidth=1;fontFamily=Times New Roman;fontSize=13;fillColor=#ffe6cc;strokeColor=#d79b00;verticalAlign=top;fontStyle=1" vertex="1" parent="1">
          <mxGeometry x="650" y="181.25" width="170" height="130" as="geometry" />
        </mxCell>
        <mxCell id="lTj_T8A3qL2pbx2PuDj2-2" value="训练阶段二：UDU" style="rounded=1;whiteSpace=wrap;html=1;shadow=0;glass=0;sketch=0;strokeWidth=1;fontFamily=Times New Roman;fontSize=13;fillColor=#f5f5f5;strokeColor=none;fontColor=#333333;verticalAlign=top;fontStyle=1" vertex="1" parent="1">
          <mxGeometry x="250" y="21.25" width="190" height="290" as="geometry" />
        </mxCell>
        <mxCell id="lTj_T8A3qL2pbx2PuDj2-3" value="重建阶段：UDU" style="rounded=1;whiteSpace=wrap;html=1;shadow=0;glass=0;sketch=0;strokeWidth=1;fontFamily=Times New Roman;fontSize=13;fillColor=#f5f5f5;strokeColor=none;fontColor=#333333;verticalAlign=top;fontStyle=1" vertex="1" parent="1">
          <mxGeometry x="450" y="21.25" width="190" height="290" as="geometry" />
        </mxCell>
        <mxCell id="lTj_T8A3qL2pbx2PuDj2-4" value="" style="rounded=1;whiteSpace=wrap;html=1;fontFamily=Times New Roman;fillColor=#e1d5e7;strokeColor=#9673a6;verticalAlign=top;fontSize=13;fontStyle=1;shadow=0;glass=0;sketch=1;curveFitting=1;jiggle=2;" vertex="1" parent="1">
          <mxGeometry x="475" y="86.25" width="136" height="175" as="geometry" />
        </mxCell>
        <mxCell id="lTj_T8A3qL2pbx2PuDj2-5" value="" style="rounded=1;whiteSpace=wrap;html=1;fontFamily=Times New Roman;fillColor=#e1d5e7;strokeColor=#9673a6;verticalAlign=top;fontSize=13;fontStyle=1;shadow=0;glass=0;sketch=1;curveFitting=1;jiggle=2;" vertex="1" parent="1">
          <mxGeometry x="262" y="86.25" width="136" height="175" as="geometry" />
        </mxCell>
        <mxCell id="lTj_T8A3qL2pbx2PuDj2-6" value="训练阶段一：SVAE" style="rounded=1;whiteSpace=wrap;html=1;fontFamily=Times New Roman;fillColor=#f5f5f5;fontColor=#333333;strokeColor=none;verticalAlign=top;fontSize=13;fontStyle=1;shadow=0;" vertex="1" parent="1">
          <mxGeometry x="60" y="21.25" width="170" height="290" as="geometry" />
        </mxCell>
        <mxCell id="lTj_T8A3qL2pbx2PuDj2-7" value="" style="rounded=1;whiteSpace=wrap;html=1;fontFamily=Times New Roman;fillColor=#dae8fc;strokeColor=#6c8ebf;verticalAlign=top;fontSize=13;fontStyle=1;shadow=0;sketch=1;curveFitting=1;jiggle=2;" vertex="1" parent="1">
          <mxGeometry x="84" y="86.25" width="136" height="215" as="geometry" />
        </mxCell>
        <mxCell id="lTj_T8A3qL2pbx2PuDj2-8" value="&lt;font&gt;编码器&lt;/font&gt;" style="rounded=1;whiteSpace=wrap;html=1;fontFamily=Times New Roman;fillColor=#dae8fc;strokeColor=#6c8ebf;" vertex="1" parent="1">
          <mxGeometry x="90" y="101.25" width="120" height="20" as="geometry" />
        </mxCell>
        <mxCell id="lTj_T8A3qL2pbx2PuDj2-9" style="edgeStyle=orthogonalEdgeStyle;orthogonalLoop=1;jettySize=auto;html=1;strokeColor=#000000;fontFamily=Times New Roman;fontSize=10;startSize=6;endSize=4;rounded=1;fillColor=#dae8fc;exitX=0.319;exitY=1;exitDx=0;exitDy=0;exitPerimeter=0;" edge="1" parent="1" source="lTj_T8A3qL2pbx2PuDj2-10">
          <mxGeometry relative="1" as="geometry">
            <mxPoint x="70" y="81.25" as="targetPoint" />
            <Array as="points">
              <mxPoint x="130" y="291.25" />
              <mxPoint x="130" y="301.25" />
              <mxPoint x="70" y="301.25" />
            </Array>
          </mxGeometry>
        </mxCell>
        <mxCell id="lTj_T8A3qL2pbx2PuDj2-10" value="&lt;font&gt;解码器&lt;/font&gt;" style="rounded=1;whiteSpace=wrap;html=1;fontFamily=Times New Roman;fillColor=#ffe6cc;strokeColor=#d79b00;" vertex="1" parent="1">
          <mxGeometry x="90" y="271.25" width="120" height="20" as="geometry" />
        </mxCell>
        <mxCell id="lTj_T8A3qL2pbx2PuDj2-11" style="edgeStyle=orthogonalEdgeStyle;orthogonalLoop=1;jettySize=auto;html=1;entryX=0.5;entryY=0;entryDx=0;entryDy=0;fontFamily=Times New Roman;fontSize=12;startSize=6;endSize=4;fillColor=#f8cecc;strokeColor=#b85450;curved=1;" edge="1" parent="1" source="lTj_T8A3qL2pbx2PuDj2-12" target="lTj_T8A3qL2pbx2PuDj2-18">
          <mxGeometry relative="1" as="geometry">
            <Array as="points">
              <mxPoint x="115" y="171.25" />
              <mxPoint x="150" y="171.25" />
            </Array>
          </mxGeometry>
        </mxCell>
        <mxCell id="lTj_T8A3qL2pbx2PuDj2-12" value="$$\mu_\theta$$" style="rounded=1;whiteSpace=wrap;html=1;fontFamily=Times New Roman;fillColor=#f8cecc;strokeColor=#b85450;" vertex="1" parent="1">
          <mxGeometry x="90" y="141.25" width="56" height="20" as="geometry" />
        </mxCell>
        <mxCell id="lTj_T8A3qL2pbx2PuDj2-13" style="edgeStyle=orthogonalEdgeStyle;curved=1;orthogonalLoop=1;jettySize=auto;html=1;entryX=0.5;entryY=0;entryDx=0;entryDy=0;fontFamily=Times New Roman;fontSize=12;startSize=6;endSize=4;fillColor=#f8cecc;strokeColor=#b85450;" edge="1" parent="1" source="lTj_T8A3qL2pbx2PuDj2-14" target="lTj_T8A3qL2pbx2PuDj2-18">
          <mxGeometry relative="1" as="geometry">
            <Array as="points">
              <mxPoint x="185" y="171.25" />
              <mxPoint x="150" y="171.25" />
            </Array>
          </mxGeometry>
        </mxCell>
        <mxCell id="lTj_T8A3qL2pbx2PuDj2-14" value="$$b_\theta$$" style="rounded=1;whiteSpace=wrap;html=1;fontFamily=Times New Roman;fillColor=#f8cecc;strokeColor=#b85450;" vertex="1" parent="1">
          <mxGeometry x="154" y="141.25" width="56" height="20" as="geometry" />
        </mxCell>
        <mxCell id="lTj_T8A3qL2pbx2PuDj2-15" value="" style="endArrow=classic;html=1;fontFamily=Times New Roman;entryX=0.5;entryY=0;entryDx=0;entryDy=0;fillColor=#dae8fc;strokeColor=#6c8ebf;rounded=0;endSize=4;" edge="1" parent="1" target="lTj_T8A3qL2pbx2PuDj2-12">
          <mxGeometry width="50" height="50" relative="1" as="geometry">
            <mxPoint x="118" y="121.25" as="sourcePoint" />
            <mxPoint x="410" y="201.25" as="targetPoint" />
            <Array as="points" />
          </mxGeometry>
        </mxCell>
        <mxCell id="lTj_T8A3qL2pbx2PuDj2-16" value="" style="endArrow=classic;html=1;fontFamily=Times New Roman;curved=1;entryX=0.5;entryY=0;entryDx=0;entryDy=0;fillColor=#dae8fc;strokeColor=#6c8ebf;endSize=4;" edge="1" parent="1" target="lTj_T8A3qL2pbx2PuDj2-14">
          <mxGeometry width="50" height="50" relative="1" as="geometry">
            <mxPoint x="182" y="121.25" as="sourcePoint" />
            <mxPoint x="410" y="201.25" as="targetPoint" />
          </mxGeometry>
        </mxCell>
        <mxCell id="lTj_T8A3qL2pbx2PuDj2-17" value="" style="edgeStyle=orthogonalEdgeStyle;curved=1;orthogonalLoop=1;jettySize=auto;html=1;exitX=0.5;exitY=1;exitDx=0;exitDy=0;entryX=0.5;entryY=0;entryDx=0;entryDy=0;fontFamily=Times New Roman;fontSize=12;startSize=6;endSize=4;fillColor=#f8cecc;strokeColor=#b85450;" edge="1" parent="1" source="lTj_T8A3qL2pbx2PuDj2-18" target="lTj_T8A3qL2pbx2PuDj2-21">
          <mxGeometry relative="1" as="geometry" />
        </mxCell>
        <mxCell id="lTj_T8A3qL2pbx2PuDj2-18" value="$$La(\mu_\theta,b_\theta)$$" style="rounded=1;whiteSpace=wrap;html=1;fontFamily=Times New Roman;fillColor=#f8cecc;strokeColor=#b85450;glass=0;shadow=0;" vertex="1" parent="1">
          <mxGeometry x="122" y="192.76" width="56" height="20" as="geometry" />
        </mxCell>
        <mxCell id="lTj_T8A3qL2pbx2PuDj2-19" value="来自源域的全采样图像" style="text;html=1;strokeColor=none;fillColor=none;align=center;verticalAlign=middle;whiteSpace=wrap;rounded=0;fontSize=12;fontFamily=Times New Roman;" vertex="1" parent="1">
          <mxGeometry x="72" y="49.25" width="145" height="20" as="geometry" />
        </mxCell>
        <mxCell id="lTj_T8A3qL2pbx2PuDj2-20" style="edgeStyle=orthogonalEdgeStyle;curved=1;orthogonalLoop=1;jettySize=auto;html=1;entryX=0.5;entryY=0;entryDx=0;entryDy=0;fontFamily=Times New Roman;fontSize=12;startSize=6;endSize=4;fillColor=#f8cecc;strokeColor=#b85450;" edge="1" parent="1" source="lTj_T8A3qL2pbx2PuDj2-21" target="lTj_T8A3qL2pbx2PuDj2-10">
          <mxGeometry relative="1" as="geometry" />
        </mxCell>
        <mxCell id="lTj_T8A3qL2pbx2PuDj2-21" value="$$z$$" style="rounded=1;whiteSpace=wrap;html=1;fontFamily=Times New Roman;fillColor=#f8cecc;strokeColor=#b85450;" vertex="1" parent="1">
          <mxGeometry x="122" y="231.25" width="56" height="20" as="geometry" />
        </mxCell>
        <mxCell id="lTj_T8A3qL2pbx2PuDj2-22" value="$$\mathcal{M}_C$$" style="text;html=1;strokeColor=none;fillColor=none;align=center;verticalAlign=middle;whiteSpace=wrap;rounded=0;fontSize=12;fontFamily=Times New Roman;" vertex="1" parent="1">
          <mxGeometry x="150" y="211.25" width="30" height="20" as="geometry" />
        </mxCell>
        <mxCell id="lTj_T8A3qL2pbx2PuDj2-23" value="$$d_z$$" style="text;html=1;strokeColor=none;fillColor=none;align=center;verticalAlign=middle;whiteSpace=wrap;rounded=0;fontSize=12;fontFamily=Times New Roman;" vertex="1" parent="1">
          <mxGeometry x="180" y="117.75999999999999" width="30" height="20" as="geometry" />
        </mxCell>
        <mxCell id="lTj_T8A3qL2pbx2PuDj2-24" value="$$d_z$$" style="text;html=1;strokeColor=none;fillColor=none;align=center;verticalAlign=middle;whiteSpace=wrap;rounded=0;fontSize=12;fontFamily=Times New Roman;" vertex="1" parent="1">
          <mxGeometry x="116" y="117.75999999999999" width="30" height="20" as="geometry" />
        </mxCell>
        <mxCell id="lTj_T8A3qL2pbx2PuDj2-25" value="" style="endArrow=classic;html=1;fontFamily=Times New Roman;fillColor=#dae8fc;strokeColor=#000000;rounded=0;endSize=4;" edge="1" parent="1">
          <mxGeometry width="50" height="50" relative="1" as="geometry">
            <mxPoint x="134.76" y="76.25" as="sourcePoint" />
            <mxPoint x="135" y="101.25" as="targetPoint" />
            <Array as="points" />
          </mxGeometry>
        </mxCell>
        <mxCell id="lTj_T8A3qL2pbx2PuDj2-26" value="" style="endArrow=classic;html=1;fontFamily=Times New Roman;fillColor=#dae8fc;strokeColor=#000000;rounded=0;endSize=4;" edge="1" parent="1">
          <mxGeometry width="50" height="50" relative="1" as="geometry">
            <mxPoint x="164.76" y="76.25" as="sourcePoint" />
            <mxPoint x="164.76" y="101.25" as="targetPoint" />
            <Array as="points" />
          </mxGeometry>
        </mxCell>
        <mxCell id="lTj_T8A3qL2pbx2PuDj2-27" value="$$d_z$$" style="text;html=1;strokeColor=none;fillColor=none;align=center;verticalAlign=middle;whiteSpace=wrap;rounded=0;fontSize=12;fontFamily=Times New Roman;" vertex="1" parent="1">
          <mxGeometry x="151" y="251.25" width="30" height="20" as="geometry" />
        </mxCell>
        <mxCell id="lTj_T8A3qL2pbx2PuDj2-28" style="edgeStyle=orthogonalEdgeStyle;rounded=1;orthogonalLoop=1;jettySize=auto;html=1;entryX=0.5;entryY=0;entryDx=0;entryDy=0;strokeColor=#82b366;fontFamily=Times New Roman;fontSize=10;fontColor=#EA6B66;startSize=6;endSize=4;fillColor=#d5e8d4;" edge="1" parent="1" source="lTj_T8A3qL2pbx2PuDj2-29" target="lTj_T8A3qL2pbx2PuDj2-31">
          <mxGeometry relative="1" as="geometry" />
        </mxCell>
        <mxCell id="lTj_T8A3qL2pbx2PuDj2-29" value="&lt;font&gt;UDU迭代块 1&lt;/font&gt;" style="rounded=1;whiteSpace=wrap;html=1;fontFamily=Times New Roman;fillColor=#d5e8d4;strokeColor=#82b366;" vertex="1" parent="1">
          <mxGeometry x="270" y="101.25" width="120" height="20" as="geometry" />
        </mxCell>
        <mxCell id="lTj_T8A3qL2pbx2PuDj2-30" style="edgeStyle=orthogonalEdgeStyle;rounded=1;orthogonalLoop=1;jettySize=auto;html=1;entryX=0.5;entryY=0;entryDx=0;entryDy=0;strokeColor=#82b366;fontFamily=Times New Roman;fontSize=10;fontColor=#EA6B66;startSize=6;endSize=4;fillColor=#d5e8d4;" edge="1" parent="1" source="lTj_T8A3qL2pbx2PuDj2-31" target="lTj_T8A3qL2pbx2PuDj2-33">
          <mxGeometry relative="1" as="geometry" />
        </mxCell>
        <mxCell id="lTj_T8A3qL2pbx2PuDj2-31" value="UDU迭代块 2" style="rounded=1;whiteSpace=wrap;html=1;fontFamily=Times New Roman;fillColor=#d5e8d4;strokeColor=#82b366;" vertex="1" parent="1">
          <mxGeometry x="270" y="141.25" width="120" height="20" as="geometry" />
        </mxCell>
        <mxCell id="lTj_T8A3qL2pbx2PuDj2-32" style="edgeStyle=orthogonalEdgeStyle;rounded=1;orthogonalLoop=1;jettySize=auto;html=1;entryX=0.5;entryY=0;entryDx=0;entryDy=0;strokeColor=#82b366;fontFamily=Times New Roman;fontSize=10;fontColor=#EA6B66;startSize=6;endSize=4;fillColor=#d5e8d4;" edge="1" parent="1" source="lTj_T8A3qL2pbx2PuDj2-33" target="lTj_T8A3qL2pbx2PuDj2-34">
          <mxGeometry relative="1" as="geometry" />
        </mxCell>
        <mxCell id="lTj_T8A3qL2pbx2PuDj2-33" value="UDU迭代块 K-1" style="rounded=1;whiteSpace=wrap;html=1;fontFamily=Times New Roman;fillColor=#d5e8d4;strokeColor=#82b366;" vertex="1" parent="1">
          <mxGeometry x="270" y="192.76" width="120" height="20" as="geometry" />
        </mxCell>
        <mxCell id="lTj_T8A3qL2pbx2PuDj2-34" value="UDU迭代块 K" style="rounded=1;whiteSpace=wrap;html=1;fontFamily=Times New Roman;fillColor=#d5e8d4;strokeColor=#82b366;" vertex="1" parent="1">
          <mxGeometry x="270" y="231.25" width="120" height="20" as="geometry" />
        </mxCell>
        <mxCell id="lTj_T8A3qL2pbx2PuDj2-35" value="来自目标域的降采样图像：训练集" style="text;html=1;strokeColor=none;fillColor=none;align=center;verticalAlign=middle;whiteSpace=wrap;rounded=0;fontSize=12;fontFamily=Times New Roman;" vertex="1" parent="1">
          <mxGeometry x="248.5" y="51.25" width="191" height="20" as="geometry" />
        </mxCell>
        <mxCell id="lTj_T8A3qL2pbx2PuDj2-36" style="edgeStyle=orthogonalEdgeStyle;rounded=1;orthogonalLoop=1;jettySize=auto;html=1;entryX=0.5;entryY=0;entryDx=0;entryDy=0;strokeColor=#000000;fontFamily=Times New Roman;fontSize=10;fontColor=#EA6B66;startSize=6;endSize=4;fillColor=#d5e8d4;" edge="1" parent="1">
          <mxGeometry relative="1" as="geometry">
            <mxPoint x="311.25" y="76.25" as="sourcePoint" />
            <mxPoint x="311.25" y="101.25" as="targetPoint" />
          </mxGeometry>
        </mxCell>
        <mxCell id="lTj_T8A3qL2pbx2PuDj2-37" style="edgeStyle=orthogonalEdgeStyle;rounded=1;orthogonalLoop=1;jettySize=auto;html=1;entryX=0.5;entryY=0;entryDx=0;entryDy=0;strokeColor=#000000;fontFamily=Times New Roman;fontSize=10;fontColor=#EA6B66;startSize=6;endSize=4;fillColor=#d5e8d4;" edge="1" parent="1">
          <mxGeometry relative="1" as="geometry">
            <mxPoint x="350" y="76.25" as="sourcePoint" />
            <mxPoint x="350" y="101.25" as="targetPoint" />
          </mxGeometry>
        </mxCell>
        <mxCell id="lTj_T8A3qL2pbx2PuDj2-38" value="$$\mathcal{L}_{UDU}$$" style="text;html=1;strokeColor=none;fillColor=none;align=center;verticalAlign=middle;whiteSpace=wrap;rounded=0;fontSize=12;fontFamily=Times New Roman;fontColor=#9673A6;" vertex="1" parent="1">
          <mxGeometry x="304" y="272.25" width="49" height="30" as="geometry" />
        </mxCell>
        <mxCell id="lTj_T8A3qL2pbx2PuDj2-39" style="edgeStyle=orthogonalEdgeStyle;rounded=1;orthogonalLoop=1;jettySize=auto;html=1;entryX=0.5;entryY=0;entryDx=0;entryDy=0;strokeColor=#000000;fontFamily=Times New Roman;fontSize=10;fontColor=#EA6B66;startSize=6;endSize=4;fillColor=#d5e8d4;dashed=1;" edge="1" parent="1">
          <mxGeometry relative="1" as="geometry">
            <mxPoint x="310" y="251.25" as="sourcePoint" />
            <mxPoint x="310" y="272.25" as="targetPoint" />
          </mxGeometry>
        </mxCell>
        <mxCell id="lTj_T8A3qL2pbx2PuDj2-40" style="edgeStyle=orthogonalEdgeStyle;rounded=1;orthogonalLoop=1;jettySize=auto;html=1;entryX=0.5;entryY=0;entryDx=0;entryDy=0;strokeColor=#000000;fontFamily=Times New Roman;fontSize=10;fontColor=#EA6B66;startSize=6;endSize=4;fillColor=#d5e8d4;dashed=1;" edge="1" parent="1">
          <mxGeometry relative="1" as="geometry">
            <mxPoint x="348.58" y="251.25" as="sourcePoint" />
            <mxPoint x="348.58" y="272.25" as="targetPoint" />
          </mxGeometry>
        </mxCell>
        <mxCell id="lTj_T8A3qL2pbx2PuDj2-41" style="edgeStyle=orthogonalEdgeStyle;rounded=1;orthogonalLoop=1;jettySize=auto;html=1;entryX=0.5;entryY=0;entryDx=0;entryDy=0;strokeColor=#82b366;fontFamily=Times New Roman;fontSize=10;fontColor=#EA6B66;startSize=6;endSize=4;fillColor=#d5e8d4;" edge="1" parent="1" source="lTj_T8A3qL2pbx2PuDj2-42" target="lTj_T8A3qL2pbx2PuDj2-44">
          <mxGeometry relative="1" as="geometry" />
        </mxCell>
        <mxCell id="lTj_T8A3qL2pbx2PuDj2-42" value="UDU迭代块 1" style="rounded=1;whiteSpace=wrap;html=1;fontFamily=Times New Roman;fillColor=#d5e8d4;strokeColor=#82b366;" vertex="1" parent="1">
          <mxGeometry x="483" y="101.25" width="120" height="20" as="geometry" />
        </mxCell>
        <mxCell id="lTj_T8A3qL2pbx2PuDj2-43" style="edgeStyle=orthogonalEdgeStyle;rounded=1;orthogonalLoop=1;jettySize=auto;html=1;entryX=0.5;entryY=0;entryDx=0;entryDy=0;strokeColor=#82b366;fontFamily=Times New Roman;fontSize=10;fontColor=#EA6B66;startSize=6;endSize=4;fillColor=#d5e8d4;" edge="1" parent="1" source="lTj_T8A3qL2pbx2PuDj2-44" target="lTj_T8A3qL2pbx2PuDj2-46">
          <mxGeometry relative="1" as="geometry" />
        </mxCell>
        <mxCell id="lTj_T8A3qL2pbx2PuDj2-44" value="UDU迭代块 2" style="rounded=1;whiteSpace=wrap;html=1;fontFamily=Times New Roman;fillColor=#d5e8d4;strokeColor=#82b366;" vertex="1" parent="1">
          <mxGeometry x="483" y="141.25" width="120" height="20" as="geometry" />
        </mxCell>
        <mxCell id="lTj_T8A3qL2pbx2PuDj2-45" style="edgeStyle=orthogonalEdgeStyle;rounded=1;orthogonalLoop=1;jettySize=auto;html=1;entryX=0.5;entryY=0;entryDx=0;entryDy=0;strokeColor=#82b366;fontFamily=Times New Roman;fontSize=10;fontColor=#EA6B66;startSize=6;endSize=4;fillColor=#d5e8d4;" edge="1" parent="1" source="lTj_T8A3qL2pbx2PuDj2-46" target="lTj_T8A3qL2pbx2PuDj2-47">
          <mxGeometry relative="1" as="geometry" />
        </mxCell>
        <mxCell id="lTj_T8A3qL2pbx2PuDj2-46" value="UDU迭代块 K-1" style="rounded=1;whiteSpace=wrap;html=1;fontFamily=Times New Roman;fillColor=#d5e8d4;strokeColor=#82b366;" vertex="1" parent="1">
          <mxGeometry x="483" y="192.76" width="120" height="20" as="geometry" />
        </mxCell>
        <mxCell id="lTj_T8A3qL2pbx2PuDj2-47" value="UDU迭代块 K" style="rounded=1;whiteSpace=wrap;html=1;fontFamily=Times New Roman;fillColor=#d5e8d4;strokeColor=#82b366;" vertex="1" parent="1">
          <mxGeometry x="483" y="231.25" width="120" height="20" as="geometry" />
        </mxCell>
        <mxCell id="lTj_T8A3qL2pbx2PuDj2-48" value="来自目标域的降采样图像：测试集" style="text;html=1;strokeColor=none;fillColor=none;align=center;verticalAlign=middle;whiteSpace=wrap;rounded=0;fontSize=12;fontFamily=Times New Roman;" vertex="1" parent="1">
          <mxGeometry x="452" y="49.25" width="186" height="20" as="geometry" />
        </mxCell>
        <mxCell id="lTj_T8A3qL2pbx2PuDj2-49" style="edgeStyle=orthogonalEdgeStyle;rounded=1;orthogonalLoop=1;jettySize=auto;html=1;entryX=0.5;entryY=0;entryDx=0;entryDy=0;strokeColor=#000000;fontFamily=Times New Roman;fontSize=10;fontColor=#EA6B66;startSize=6;endSize=4;fillColor=#d5e8d4;" edge="1" parent="1">
          <mxGeometry relative="1" as="geometry">
            <mxPoint x="523" y="76.25" as="sourcePoint" />
            <mxPoint x="523" y="101.25" as="targetPoint" />
          </mxGeometry>
        </mxCell>
        <mxCell id="lTj_T8A3qL2pbx2PuDj2-50" style="edgeStyle=orthogonalEdgeStyle;rounded=1;orthogonalLoop=1;jettySize=auto;html=1;entryX=0.5;entryY=0;entryDx=0;entryDy=0;strokeColor=#000000;fontFamily=Times New Roman;fontSize=10;fontColor=#EA6B66;startSize=6;endSize=4;fillColor=#d5e8d4;" edge="1" parent="1">
          <mxGeometry relative="1" as="geometry">
            <mxPoint x="563" y="76.25" as="sourcePoint" />
            <mxPoint x="563" y="101.25" as="targetPoint" />
          </mxGeometry>
        </mxCell>
        <mxCell id="lTj_T8A3qL2pbx2PuDj2-51" value="重建图像" style="text;html=1;strokeColor=none;fillColor=none;align=center;verticalAlign=middle;whiteSpace=wrap;rounded=0;fontSize=12;fontFamily=Times New Roman;" vertex="1" parent="1">
          <mxGeometry x="484" y="275.78999999999996" width="112.5" height="20" as="geometry" />
        </mxCell>
        <mxCell id="lTj_T8A3qL2pbx2PuDj2-52" style="edgeStyle=orthogonalEdgeStyle;rounded=1;orthogonalLoop=1;jettySize=auto;html=1;entryX=0.5;entryY=0;entryDx=0;entryDy=0;strokeColor=#000000;fontFamily=Times New Roman;fontSize=10;fontColor=#EA6B66;startSize=6;endSize=4;fillColor=#d5e8d4;" edge="1" parent="1">
          <mxGeometry relative="1" as="geometry">
            <mxPoint x="521" y="252.25" as="sourcePoint" />
            <mxPoint x="521" y="276.25" as="targetPoint" />
          </mxGeometry>
        </mxCell>
        <mxCell id="lTj_T8A3qL2pbx2PuDj2-53" style="edgeStyle=orthogonalEdgeStyle;rounded=1;orthogonalLoop=1;jettySize=auto;html=1;entryX=0.5;entryY=0;entryDx=0;entryDy=0;strokeColor=#000000;fontFamily=Times New Roman;fontSize=10;fontColor=#EA6B66;startSize=6;endSize=4;fillColor=#d5e8d4;" edge="1" parent="1">
          <mxGeometry relative="1" as="geometry">
            <mxPoint x="560.5799999999999" y="252.25" as="sourcePoint" />
            <mxPoint x="560.5799999999999" y="276.25" as="targetPoint" />
          </mxGeometry>
        </mxCell>
        <mxCell id="lTj_T8A3qL2pbx2PuDj2-54" style="edgeStyle=orthogonalEdgeStyle;rounded=1;orthogonalLoop=1;jettySize=auto;html=1;strokeColor=#6c8ebf;fontFamily=Times New Roman;fontSize=13;fontColor=#EA6B66;startSize=6;endSize=4;fillColor=#dae8fc;" edge="1" parent="1" source="lTj_T8A3qL2pbx2PuDj2-7">
          <mxGeometry relative="1" as="geometry">
            <mxPoint x="280" y="111.25" as="targetPoint" />
          </mxGeometry>
        </mxCell>
        <mxCell id="lTj_T8A3qL2pbx2PuDj2-55" style="edgeStyle=orthogonalEdgeStyle;rounded=1;orthogonalLoop=1;jettySize=auto;html=1;exitX=1;exitY=0.5;exitDx=0;exitDy=0;strokeColor=#6c8ebf;fontFamily=Times New Roman;fontSize=13;fontColor=#EA6B66;startSize=6;endSize=4;fillColor=#dae8fc;" edge="1" parent="1" source="lTj_T8A3qL2pbx2PuDj2-7">
          <mxGeometry relative="1" as="geometry">
            <mxPoint x="280" y="151.25" as="targetPoint" />
          </mxGeometry>
        </mxCell>
        <mxCell id="lTj_T8A3qL2pbx2PuDj2-56" style="edgeStyle=orthogonalEdgeStyle;rounded=1;orthogonalLoop=1;jettySize=auto;html=1;exitX=1;exitY=0.5;exitDx=0;exitDy=0;strokeColor=#6c8ebf;fontFamily=Times New Roman;fontSize=13;fontColor=#EA6B66;startSize=6;endSize=4;fillColor=#dae8fc;" edge="1" parent="1" source="lTj_T8A3qL2pbx2PuDj2-7">
          <mxGeometry relative="1" as="geometry">
            <mxPoint x="300" y="176.25" as="targetPoint" />
            <Array as="points">
              <mxPoint x="260" y="194.25" />
              <mxPoint x="260" y="176.25" />
            </Array>
          </mxGeometry>
        </mxCell>
        <mxCell id="lTj_T8A3qL2pbx2PuDj2-57" style="edgeStyle=orthogonalEdgeStyle;rounded=1;orthogonalLoop=1;jettySize=auto;html=1;strokeColor=#6c8ebf;fontFamily=Times New Roman;fontSize=13;fontColor=#EA6B66;startSize=6;endSize=4;fillColor=#dae8fc;" edge="1" parent="1" source="lTj_T8A3qL2pbx2PuDj2-7">
          <mxGeometry relative="1" as="geometry">
            <mxPoint x="280" y="202.25" as="targetPoint" />
            <Array as="points">
              <mxPoint x="260" y="194.25" />
              <mxPoint x="260" y="202.25" />
            </Array>
          </mxGeometry>
        </mxCell>
        <mxCell id="lTj_T8A3qL2pbx2PuDj2-58" style="edgeStyle=orthogonalEdgeStyle;rounded=1;orthogonalLoop=1;jettySize=auto;html=1;strokeColor=#6c8ebf;fontFamily=Times New Roman;fontSize=13;fontColor=#EA6B66;startSize=6;endSize=4;fillColor=#dae8fc;" edge="1" parent="1" source="lTj_T8A3qL2pbx2PuDj2-7">
          <mxGeometry relative="1" as="geometry">
            <mxPoint x="280" y="241.25" as="targetPoint" />
          </mxGeometry>
        </mxCell>
        <mxCell id="lTj_T8A3qL2pbx2PuDj2-59" style="edgeStyle=orthogonalEdgeStyle;rounded=1;orthogonalLoop=1;jettySize=auto;html=1;exitX=0.5;exitY=1;exitDx=0;exitDy=0;entryX=0.5;entryY=0;entryDx=0;entryDy=0;strokeColor=#d79b00;fontFamily=Times New Roman;fontSize=13;fontColor=#FF8000;startSize=6;endSize=4;fillColor=#ffe6cc;" edge="1" parent="1" source="lTj_T8A3qL2pbx2PuDj2-60" target="lTj_T8A3qL2pbx2PuDj2-61">
          <mxGeometry relative="1" as="geometry" />
        </mxCell>
        <mxCell id="lTj_T8A3qL2pbx2PuDj2-60" value="DeConv2D 3×3-BN-Relu *2" style="rounded=1;whiteSpace=wrap;html=1;fontFamily=Times New Roman;fillColor=#ffe6cc;strokeColor=#d79b00;" vertex="1" parent="1">
          <mxGeometry x="660" y="226.25" width="150" height="20" as="geometry" />
        </mxCell>
        <mxCell id="lTj_T8A3qL2pbx2PuDj2-61" value="DeConv2D 3×3-BN-Relu *2" style="rounded=1;whiteSpace=wrap;html=1;fontFamily=Times New Roman;fillColor=#ffe6cc;strokeColor=#d79b00;" vertex="1" parent="1">
          <mxGeometry x="660" y="266.25" width="150" height="20" as="geometry" />
        </mxCell>
        <mxCell id="lTj_T8A3qL2pbx2PuDj2-62" style="edgeStyle=orthogonalEdgeStyle;rounded=1;orthogonalLoop=1;jettySize=auto;html=1;entryX=0.5;entryY=0;entryDx=0;entryDy=0;strokeColor=#000000;fontFamily=Times New Roman;fontSize=10;fontColor=#EA6B66;startSize=6;endSize=4;fillColor=#dae8fc;" edge="1" parent="1">
          <mxGeometry relative="1" as="geometry">
            <mxPoint x="734.5799999999999" y="286.25" as="sourcePoint" />
            <mxPoint x="734.5799999999999" y="301.25" as="targetPoint" />
          </mxGeometry>
        </mxCell>
        <mxCell id="lTj_T8A3qL2pbx2PuDj2-63" style="edgeStyle=orthogonalEdgeStyle;rounded=1;orthogonalLoop=1;jettySize=auto;html=1;entryX=0.5;entryY=0;entryDx=0;entryDy=0;strokeColor=#b85450;fontFamily=Times New Roman;fontSize=10;fontColor=#EA6B66;startSize=6;endSize=4;fillColor=#f8cecc;" edge="1" parent="1">
          <mxGeometry relative="1" as="geometry">
            <mxPoint x="734.5799999999999" y="208.25" as="sourcePoint" />
            <mxPoint x="734.5799999999999" y="226.25" as="targetPoint" />
          </mxGeometry>
        </mxCell>
        <mxCell id="lTj_T8A3qL2pbx2PuDj2-64" value="编码器" style="rounded=1;whiteSpace=wrap;html=1;shadow=0;glass=0;sketch=0;strokeWidth=1;fontFamily=Times New Roman;fontSize=13;fillColor=#dae8fc;strokeColor=#6c8ebf;verticalAlign=top;fontStyle=1" vertex="1" parent="1">
          <mxGeometry x="650" y="21.25" width="170" height="150" as="geometry" />
        </mxCell>
        <mxCell id="lTj_T8A3qL2pbx2PuDj2-65" style="edgeStyle=orthogonalEdgeStyle;rounded=1;orthogonalLoop=1;jettySize=auto;html=1;exitX=0.5;exitY=1;exitDx=0;exitDy=0;entryX=0.5;entryY=0;entryDx=0;entryDy=0;strokeColor=#6c8ebf;fontFamily=Times New Roman;fontSize=13;fontColor=#FF8000;startSize=6;endSize=4;fillColor=#dae8fc;" edge="1" parent="1" source="lTj_T8A3qL2pbx2PuDj2-66" target="lTj_T8A3qL2pbx2PuDj2-67">
          <mxGeometry relative="1" as="geometry" />
        </mxCell>
        <mxCell id="lTj_T8A3qL2pbx2PuDj2-66" value="Conv2D 3×3-BN-Relu *2" style="rounded=1;whiteSpace=wrap;html=1;fontFamily=Times New Roman;fillColor=#dae8fc;strokeColor=#6c8ebf;" vertex="1" parent="1">
          <mxGeometry x="660" y="66.25" width="150" height="20" as="geometry" />
        </mxCell>
        <mxCell id="lTj_T8A3qL2pbx2PuDj2-67" value="Conv2D 3×3-BN-Relu *2" style="rounded=1;whiteSpace=wrap;html=1;fontFamily=Times New Roman;fillColor=#dae8fc;strokeColor=#6c8ebf;" vertex="1" parent="1">
          <mxGeometry x="660" y="101.25" width="150" height="20" as="geometry" />
        </mxCell>
        <mxCell id="lTj_T8A3qL2pbx2PuDj2-68" style="edgeStyle=orthogonalEdgeStyle;rounded=1;orthogonalLoop=1;jettySize=auto;html=1;entryX=0.5;entryY=0;entryDx=0;entryDy=0;strokeColor=#6c8ebf;fontFamily=Times New Roman;fontSize=10;fontColor=#EA6B66;startSize=6;endSize=4;fillColor=#dae8fc;" edge="1" parent="1">
          <mxGeometry relative="1" as="geometry">
            <mxPoint x="700.5799999999999" y="121.25" as="sourcePoint" />
            <mxPoint x="700.5799999999999" y="134.25" as="targetPoint" />
          </mxGeometry>
        </mxCell>
        <mxCell id="lTj_T8A3qL2pbx2PuDj2-69" style="edgeStyle=orthogonalEdgeStyle;rounded=1;orthogonalLoop=1;jettySize=auto;html=1;entryX=0.5;entryY=0;entryDx=0;entryDy=0;strokeColor=#000000;fontFamily=Times New Roman;fontSize=10;fontColor=#EA6B66;startSize=6;endSize=4;fillColor=#f8cecc;" edge="1" parent="1">
          <mxGeometry relative="1" as="geometry">
            <mxPoint x="734.5799999999999" y="50.25" as="sourcePoint" />
            <mxPoint x="734.5799999999999" y="66.25" as="targetPoint" />
          </mxGeometry>
        </mxCell>
        <mxCell id="lTj_T8A3qL2pbx2PuDj2-70" value="" style="line;strokeWidth=1;direction=south;html=1;rounded=0;shadow=0;glass=0;sketch=0;fontFamily=Times New Roman;fontSize=13;fontColor=#EA6B66;fillColor=default;rotation=90;" vertex="1" parent="1">
          <mxGeometry x="730" y="117.75999999999999" width="10" height="170" as="geometry" />
        </mxCell>
        <mxCell id="lTj_T8A3qL2pbx2PuDj2-71" value="$$d_z/2$$" style="text;html=1;strokeColor=none;fillColor=none;align=center;verticalAlign=middle;whiteSpace=wrap;rounded=0;fontSize=12;fontFamily=Times New Roman;" vertex="1" parent="1">
          <mxGeometry x="740" y="83.25" width="30" height="20" as="geometry" />
        </mxCell>
        <mxCell id="lTj_T8A3qL2pbx2PuDj2-72" value="$$d_z/2$$" style="text;html=1;strokeColor=none;fillColor=none;align=center;verticalAlign=middle;whiteSpace=wrap;rounded=0;fontSize=12;fontFamily=Times New Roman;" vertex="1" parent="1">
          <mxGeometry x="740" y="246.25" width="30" height="20" as="geometry" />
        </mxCell>
        <mxCell id="lTj_T8A3qL2pbx2PuDj2-73" value="1" style="text;html=1;strokeColor=none;fillColor=none;align=center;verticalAlign=middle;whiteSpace=wrap;rounded=0;fontSize=12;fontFamily=Times New Roman;" vertex="1" parent="1">
          <mxGeometry x="740" y="286.25" width="30" height="20" as="geometry" />
        </mxCell>
        <mxCell id="lTj_T8A3qL2pbx2PuDj2-74" value="$$d_z$$" style="text;html=1;strokeColor=none;fillColor=none;align=center;verticalAlign=middle;whiteSpace=wrap;rounded=0;fontSize=12;fontFamily=Times New Roman;" vertex="1" parent="1">
          <mxGeometry x="740" y="206.25" width="30" height="20" as="geometry" />
        </mxCell>
        <mxCell id="lTj_T8A3qL2pbx2PuDj2-75" value="1" style="text;html=1;strokeColor=none;fillColor=none;align=center;verticalAlign=middle;whiteSpace=wrap;rounded=0;fontSize=12;fontFamily=Times New Roman;" vertex="1" parent="1">
          <mxGeometry x="740" y="49.25" width="30" height="20" as="geometry" />
        </mxCell>
        <mxCell id="lTj_T8A3qL2pbx2PuDj2-76" value="" style="line;strokeWidth=1;direction=south;html=1;rounded=0;shadow=0;glass=0;sketch=0;fontFamily=Times New Roman;fontSize=13;fontColor=#EA6B66;fillColor=default;rotation=90;" vertex="1" parent="1">
          <mxGeometry x="140" y="-38.75" width="10" height="170" as="geometry" />
        </mxCell>
        <mxCell id="lTj_T8A3qL2pbx2PuDj2-77" value="" style="line;strokeWidth=1;direction=south;html=1;rounded=0;shadow=0;glass=0;sketch=0;fontFamily=Times New Roman;fontSize=13;fontColor=#EA6B66;fillColor=default;rotation=90;" vertex="1" parent="1">
          <mxGeometry x="340.94" y="-49.69" width="10" height="191.88" as="geometry" />
        </mxCell>
        <mxCell id="lTj_T8A3qL2pbx2PuDj2-78" value="" style="line;strokeWidth=1;direction=south;html=1;rounded=0;shadow=0;glass=0;sketch=0;fontFamily=Times New Roman;fontSize=13;fontColor=#EA6B66;fillColor=default;rotation=90;" vertex="1" parent="1">
          <mxGeometry x="541.25" y="-50" width="10" height="192.5" as="geometry" />
        </mxCell>
        <mxCell id="lTj_T8A3qL2pbx2PuDj2-79" value="" style="line;strokeWidth=1;direction=south;html=1;rounded=0;shadow=0;glass=0;sketch=0;fontFamily=Times New Roman;fontSize=13;fontColor=#EA6B66;fillColor=default;rotation=90;" vertex="1" parent="1">
          <mxGeometry x="730" y="-38.75" width="10" height="170" as="geometry" />
        </mxCell>
        <mxCell id="lTj_T8A3qL2pbx2PuDj2-80" style="edgeStyle=orthogonalEdgeStyle;rounded=1;orthogonalLoop=1;jettySize=auto;html=1;entryX=0.5;entryY=0;entryDx=0;entryDy=0;strokeColor=#6c8ebf;fontFamily=Times New Roman;fontSize=10;fontColor=#EA6B66;startSize=6;endSize=4;fillColor=#dae8fc;" edge="1" parent="1">
          <mxGeometry relative="1" as="geometry">
            <mxPoint x="768.5799999999999" y="121.25" as="sourcePoint" />
            <mxPoint x="768.5799999999999" y="134.25" as="targetPoint" />
          </mxGeometry>
        </mxCell>
        <mxCell id="lTj_T8A3qL2pbx2PuDj2-81" value="..." style="text;html=1;strokeColor=none;fillColor=none;align=center;verticalAlign=middle;whiteSpace=wrap;rounded=0;fontSize=20;fontFamily=Times New Roman;fontStyle=1" vertex="1" parent="1">
          <mxGeometry x="321.25" y="251.79000000000002" width="17.5" height="20" as="geometry" />
        </mxCell>
        <mxCell id="lTj_T8A3qL2pbx2PuDj2-82" value="..." style="text;html=1;strokeColor=none;fillColor=none;align=center;verticalAlign=middle;whiteSpace=wrap;rounded=0;fontSize=20;fontFamily=Times New Roman;fontStyle=1" vertex="1" parent="1">
          <mxGeometry x="534.25" y="255.79000000000002" width="17.5" height="20" as="geometry" />
        </mxCell>
        <mxCell id="lTj_T8A3qL2pbx2PuDj2-83" value="..." style="text;html=1;strokeColor=none;fillColor=none;align=center;verticalAlign=middle;whiteSpace=wrap;rounded=0;fontSize=20;fontFamily=Times New Roman;fontStyle=1;rotation=90;" vertex="1" parent="1">
          <mxGeometry x="320.5" y="164.75" width="17.5" height="20" as="geometry" />
        </mxCell>
        <mxCell id="lTj_T8A3qL2pbx2PuDj2-84" value="..." style="text;html=1;strokeColor=none;fillColor=none;align=center;verticalAlign=middle;whiteSpace=wrap;rounded=0;fontSize=20;fontFamily=Times New Roman;fontStyle=1;rotation=90;" vertex="1" parent="1">
          <mxGeometry x="533" y="165.25" width="17.5" height="20" as="geometry" />
        </mxCell>
        <mxCell id="lTj_T8A3qL2pbx2PuDj2-85" value="..." style="text;html=1;strokeColor=none;fillColor=none;align=center;verticalAlign=middle;whiteSpace=wrap;rounded=0;fontSize=20;fontFamily=Times New Roman;fontStyle=1" vertex="1" parent="1">
          <mxGeometry x="142.25" y="63.25" width="17.5" height="20" as="geometry" />
        </mxCell>
        <mxCell id="lTj_T8A3qL2pbx2PuDj2-86" value="..." style="text;html=1;strokeColor=none;fillColor=none;align=center;verticalAlign=middle;whiteSpace=wrap;rounded=0;fontSize=20;fontFamily=Times New Roman;fontStyle=1" vertex="1" parent="1">
          <mxGeometry x="320.25" y="63.25" width="17.5" height="20" as="geometry" />
        </mxCell>
        <mxCell id="lTj_T8A3qL2pbx2PuDj2-87" value="..." style="text;html=1;strokeColor=none;fillColor=none;align=center;verticalAlign=middle;whiteSpace=wrap;rounded=0;fontSize=20;fontFamily=Times New Roman;fontStyle=1" vertex="1" parent="1">
          <mxGeometry x="533.25" y="63.25" width="17.5" height="20" as="geometry" />
        </mxCell>
        <mxCell id="lTj_T8A3qL2pbx2PuDj2-88" style="edgeStyle=orthogonalEdgeStyle;curved=1;orthogonalLoop=1;jettySize=auto;html=1;entryX=0.5;entryY=0;entryDx=0;entryDy=0;fontFamily=Times New Roman;fontSize=12;startSize=6;endSize=4;fillColor=#f8cecc;strokeColor=#b85450;" edge="1" parent="1">
          <mxGeometry relative="1" as="geometry">
            <mxPoint x="150" y="251.25" as="sourcePoint" />
            <mxPoint x="150" y="271.25" as="targetPoint" />
          </mxGeometry>
        </mxCell>
        <mxCell id="lTj_T8A3qL2pbx2PuDj2-89" style="edgeStyle=orthogonalEdgeStyle;curved=1;orthogonalLoop=1;jettySize=auto;html=1;entryX=0.5;entryY=0;entryDx=0;entryDy=0;fontFamily=Times New Roman;fontSize=12;startSize=6;endSize=4;fillColor=#f8cecc;strokeColor=#b85450;" edge="1" parent="1">
          <mxGeometry relative="1" as="geometry">
            <mxPoint x="185" y="161.25" as="sourcePoint" />
            <mxPoint x="150" y="193.25" as="targetPoint" />
            <Array as="points">
              <mxPoint x="185" y="171.25" />
              <mxPoint x="150" y="171.25" />
            </Array>
          </mxGeometry>
        </mxCell>
        <mxCell id="lTj_T8A3qL2pbx2PuDj2-90" value="" style="endArrow=none;html=1;strokeColor=#000000;fontFamily=Times New Roman;fontSize=12;fontColor=#82B366;startSize=6;endSize=4;targetPerimeterSpacing=-2;entryX=0.631;entryY=1.033;entryDx=0;entryDy=0;rounded=1;entryPerimeter=0;" edge="1" parent="1" target="lTj_T8A3qL2pbx2PuDj2-10">
          <mxGeometry width="50" height="50" relative="1" as="geometry">
            <mxPoint x="100" y="301.25" as="sourcePoint" />
            <mxPoint x="172" y="361.25" as="targetPoint" />
            <Array as="points">
              <mxPoint x="166" y="301.25" />
            </Array>
          </mxGeometry>
        </mxCell>
        <mxCell id="lTj_T8A3qL2pbx2PuDj2-91" value="..." style="text;html=1;strokeColor=none;fillColor=none;align=center;verticalAlign=middle;whiteSpace=wrap;rounded=0;fontSize=20;fontFamily=Times New Roman;fontStyle=1" vertex="1" parent="1">
          <mxGeometry x="141.25" y="281.25" width="17.5" height="20" as="geometry" />
        </mxCell>
        <mxCell id="lTj_T8A3qL2pbx2PuDj2-92" value="$$\sum_{k=1}^K\mathcal{L}_{\omega}^{k}$$" style="text;html=1;strokeColor=none;fillColor=none;align=center;verticalAlign=middle;whiteSpace=wrap;rounded=0;fontSize=12;fontFamily=Times New Roman;fontColor=#82B366;" vertex="1" parent="1">
          <mxGeometry x="356" y="276.25" width="49" height="30" as="geometry" />
        </mxCell>
        <mxCell id="lTj_T8A3qL2pbx2PuDj2-93" value="$$\mathcal{L}_{total}=$$" style="text;html=1;strokeColor=none;fillColor=none;align=center;verticalAlign=middle;whiteSpace=wrap;rounded=0;fontSize=12;fontFamily=Times New Roman;" vertex="1" parent="1">
          <mxGeometry x="255" y="272.25" width="49" height="30" as="geometry" />
        </mxCell>
        <mxCell id="lTj_T8A3qL2pbx2PuDj2-94" value="$$+\nu$$" style="text;html=1;strokeColor=none;fillColor=none;align=center;verticalAlign=middle;whiteSpace=wrap;rounded=0;fontSize=12;fontFamily=Times New Roman;" vertex="1" parent="1">
          <mxGeometry x="330" y="274.79" width="49" height="30" as="geometry" />
        </mxCell>
        <mxCell id="lTj_T8A3qL2pbx2PuDj2-95" value="&lt;font color=&quot;#000000&quot;&gt;(a)&lt;/font&gt;" style="text;html=1;strokeColor=none;fillColor=none;align=center;verticalAlign=middle;whiteSpace=wrap;rounded=0;fontColor=#82B366;fontFamily=Times New Roman;" vertex="1" parent="1">
          <mxGeometry x="119" y="306.25" width="60" height="30" as="geometry" />
        </mxCell>
        <mxCell id="lTj_T8A3qL2pbx2PuDj2-96" value="&lt;font color=&quot;#000000&quot;&gt;(b)&lt;/font&gt;" style="text;html=1;strokeColor=none;fillColor=none;align=center;verticalAlign=middle;whiteSpace=wrap;rounded=0;fontColor=#82B366;fontFamily=Times New Roman;" vertex="1" parent="1">
          <mxGeometry x="314" y="306.25" width="60" height="30" as="geometry" />
        </mxCell>
        <mxCell id="lTj_T8A3qL2pbx2PuDj2-97" value="&lt;font color=&quot;#000000&quot;&gt;(c)&lt;/font&gt;" style="text;html=1;strokeColor=none;fillColor=none;align=center;verticalAlign=middle;whiteSpace=wrap;rounded=0;fontColor=#82B366;fontFamily=Times New Roman;" vertex="1" parent="1">
          <mxGeometry x="512" y="306.25" width="60" height="30" as="geometry" />
        </mxCell>
        <mxCell id="lTj_T8A3qL2pbx2PuDj2-98" value="&lt;font color=&quot;#000000&quot;&gt;(d)&lt;/font&gt;" style="text;html=1;strokeColor=none;fillColor=none;align=center;verticalAlign=middle;whiteSpace=wrap;rounded=0;fontColor=#82B366;fontFamily=Times New Roman;" vertex="1" parent="1">
          <mxGeometry x="709" y="306.25" width="60" height="30" as="geometry" />
        </mxCell>
        <mxCell id="lTj_T8A3qL2pbx2PuDj2-99" value="Conv2D 1×1" style="rounded=1;whiteSpace=wrap;html=1;fontFamily=Times New Roman;fillColor=#dae8fc;strokeColor=#6c8ebf;" vertex="1" parent="1">
          <mxGeometry x="668" y="134.25" width="65" height="20" as="geometry" />
        </mxCell>
        <mxCell id="lTj_T8A3qL2pbx2PuDj2-100" value="$$d_z$$" style="text;html=1;strokeColor=none;fillColor=none;align=center;verticalAlign=middle;whiteSpace=wrap;rounded=0;fontSize=12;fontFamily=Times New Roman;" vertex="1" parent="1">
          <mxGeometry x="702" y="117.25" width="30" height="20" as="geometry" />
        </mxCell>
        <mxCell id="lTj_T8A3qL2pbx2PuDj2-101" value="Conv2D 1×1" style="rounded=1;whiteSpace=wrap;html=1;fontFamily=Times New Roman;fillColor=#dae8fc;strokeColor=#6c8ebf;" vertex="1" parent="1">
          <mxGeometry x="738" y="133.75" width="65" height="20" as="geometry" />
        </mxCell>
        <mxCell id="lTj_T8A3qL2pbx2PuDj2-102" value="$$d_z$$" style="text;html=1;strokeColor=none;fillColor=none;align=center;verticalAlign=middle;whiteSpace=wrap;rounded=0;fontSize=12;fontFamily=Times New Roman;" vertex="1" parent="1">
          <mxGeometry x="770" y="117.25" width="30" height="20" as="geometry" />
        </mxCell>
        <mxCell id="lTj_T8A3qL2pbx2PuDj2-103" style="edgeStyle=orthogonalEdgeStyle;rounded=1;orthogonalLoop=1;jettySize=auto;html=1;entryX=0.5;entryY=0;entryDx=0;entryDy=0;strokeColor=#6c8ebf;fontFamily=Times New Roman;fontSize=10;fontColor=#EA6B66;startSize=6;endSize=4;fillColor=#dae8fc;" edge="1" parent="1">
          <mxGeometry relative="1" as="geometry">
            <mxPoint x="700.9999999999999" y="155.25" as="sourcePoint" />
            <mxPoint x="700.9999999999999" y="168.25" as="targetPoint" />
          </mxGeometry>
        </mxCell>
        <mxCell id="lTj_T8A3qL2pbx2PuDj2-104" style="edgeStyle=orthogonalEdgeStyle;rounded=1;orthogonalLoop=1;jettySize=auto;html=1;entryX=0.5;entryY=0;entryDx=0;entryDy=0;strokeColor=#6c8ebf;fontFamily=Times New Roman;fontSize=10;fontColor=#EA6B66;startSize=6;endSize=4;fillColor=#dae8fc;" edge="1" parent="1">
          <mxGeometry relative="1" as="geometry">
            <mxPoint x="768.9999999999999" y="155.25" as="sourcePoint" />
            <mxPoint x="768.9999999999999" y="168.25" as="targetPoint" />
          </mxGeometry>
        </mxCell>
        <mxCell id="lTj_T8A3qL2pbx2PuDj2-105" value="$$d_z$$" style="text;html=1;strokeColor=none;fillColor=none;align=center;verticalAlign=middle;whiteSpace=wrap;rounded=0;fontSize=12;fontFamily=Times New Roman;" vertex="1" parent="1">
          <mxGeometry x="702.42" y="151.25" width="30" height="20" as="geometry" />
        </mxCell>
        <mxCell id="lTj_T8A3qL2pbx2PuDj2-106" value="$$d_z$$" style="text;html=1;strokeColor=none;fillColor=none;align=center;verticalAlign=middle;whiteSpace=wrap;rounded=0;fontSize=12;fontFamily=Times New Roman;" vertex="1" parent="1">
          <mxGeometry x="770.42" y="151.25" width="30" height="20" as="geometry" />
        </mxCell>
        <mxCell id="lTj_T8A3qL2pbx2PuDj2-107" value="" style="endArrow=classic;startArrow=classic;html=1;rounded=1;strokeWidth=1;fontFamily=Lucida Console;sourcePerimeterSpacing=6;targetPerimeterSpacing=4;entryX=0;entryY=0.5;entryDx=0;entryDy=0;strokeColor=#9673A6;" edge="1" parent="1" target="lTj_T8A3qL2pbx2PuDj2-4">
          <mxGeometry width="50" height="50" relative="1" as="geometry">
            <mxPoint x="400" y="174.25" as="sourcePoint" />
            <mxPoint x="470" y="174.25" as="targetPoint" />
            <Array as="points">
              <mxPoint x="415" y="174.1042857142857" />
              <mxPoint x="422.5" y="172.67571428571426" />
              <mxPoint x="430" y="161.25" />
              <mxPoint x="437.5" y="172.67571428571426" />
              <mxPoint x="445" y="174.1042857142857" />
            </Array>
          </mxGeometry>
        </mxCell>
        <mxCell id="lTj_T8A3qL2pbx2PuDj2-108" value="&lt;font style=&quot;font-size: 12px;&quot;&gt;迁移&lt;/font&gt;" style="text;html=1;fillColor=none;align=center;verticalAlign=middle;whiteSpace=wrap;rounded=0;fontSize=16;fontFamily=Times New Roman;rotation=0;fontStyle=1;glass=0;shadow=0;" vertex="1" parent="1">
          <mxGeometry x="216" y="171.25000000000003" width="40" height="20" as="geometry" />
        </mxCell>
        <mxCell id="lTj_T8A3qL2pbx2PuDj2-109" value="&lt;font style=&quot;font-size: 12px;&quot;&gt;参数共享&lt;/font&gt;" style="text;html=1;fillColor=none;align=center;verticalAlign=middle;whiteSpace=wrap;rounded=0;fontSize=16;fontFamily=Times New Roman;rotation=0;fontStyle=1;glass=0;shadow=0;" vertex="1" parent="1">
          <mxGeometry x="435" y="164.25" width="35" height="20" as="geometry" />
        </mxCell>
        <mxCell id="lTj_T8A3qL2pbx2PuDj2-110" style="edgeStyle=orthogonalEdgeStyle;rounded=1;orthogonalLoop=1;jettySize=auto;html=1;exitX=1;exitY=0.5;exitDx=0;exitDy=0;entryX=1;entryY=0.5;entryDx=0;entryDy=0;strokeWidth=1;fontColor=#82B366;endSize=4;fillColor=#d5e8d4;strokeColor=#000000;fontFamily=Times New Roman;dashed=1;" edge="1" parent="1">
          <mxGeometry relative="1" as="geometry">
            <Array as="points">
              <mxPoint x="430" y="111.25" />
              <mxPoint x="430" y="291.25" />
            </Array>
            <mxPoint x="390" y="111" as="sourcePoint" />
            <mxPoint x="405" y="291" as="targetPoint" />
          </mxGeometry>
        </mxCell>
        <mxCell id="lTj_T8A3qL2pbx2PuDj2-111" value="&lt;font&gt;+&lt;/font&gt;" style="ellipse;whiteSpace=wrap;html=1;aspect=fixed;fillColor=#FFFFFF;strokeColor=#000000;fontColor=#000000;fontFamily=Times New Roman;" vertex="1" parent="1">
          <mxGeometry x="424" y="258.25" width="10" height="10" as="geometry" />
        </mxCell>
        <mxCell id="lTj_T8A3qL2pbx2PuDj2-112" value="" style="endArrow=none;html=1;rounded=1;dashed=1;strokeColor=#000000;strokeWidth=1;fontFamily=Lucida Console;fontSize=12;fontColor=#82B366;sourcePerimeterSpacing=6;targetPerimeterSpacing=4;exitX=1;exitY=0.5;exitDx=0;exitDy=0;" edge="1" parent="1" source="lTj_T8A3qL2pbx2PuDj2-31">
          <mxGeometry width="50" height="50" relative="1" as="geometry">
            <mxPoint x="390" y="210" as="sourcePoint" />
            <mxPoint x="430" y="151" as="targetPoint" />
          </mxGeometry>
        </mxCell>
        <mxCell id="lTj_T8A3qL2pbx2PuDj2-113" value="" style="endArrow=none;html=1;rounded=1;dashed=1;strokeColor=#000000;strokeWidth=1;fontFamily=Lucida Console;fontSize=12;fontColor=#82B366;sourcePerimeterSpacing=6;targetPerimeterSpacing=4;exitX=1;exitY=0.5;exitDx=0;exitDy=0;" edge="1" parent="1" source="lTj_T8A3qL2pbx2PuDj2-33">
          <mxGeometry width="50" height="50" relative="1" as="geometry">
            <mxPoint x="400" y="161" as="sourcePoint" />
            <mxPoint x="430" y="203" as="targetPoint" />
          </mxGeometry>
        </mxCell>
        <mxCell id="lTj_T8A3qL2pbx2PuDj2-114" value="" style="endArrow=none;html=1;rounded=1;dashed=1;strokeColor=#000000;strokeWidth=1;fontFamily=Lucida Console;fontSize=12;fontColor=#82B366;sourcePerimeterSpacing=6;targetPerimeterSpacing=4;exitX=1;exitY=0.5;exitDx=0;exitDy=0;" edge="1" parent="1" source="lTj_T8A3qL2pbx2PuDj2-34">
          <mxGeometry width="50" height="50" relative="1" as="geometry">
            <mxPoint x="400" y="213" as="sourcePoint" />
            <mxPoint x="430" y="241" as="targetPoint" />
          </mxGeometry>
        </mxCell>
      </root>
    </mxGraphModel>
  </diagram>
  <diagram id="czlCvxfUKS7VacaEw19r" name="MRI数据对应关系">
    <mxGraphModel dx="1050" dy="493" grid="1" gridSize="10" guides="1" tooltips="1" connect="1" arrows="1" fold="1" page="1" pageScale="1" pageWidth="827" pageHeight="1169" math="1" shadow="0">
      <root>
        <mxCell id="0" />
        <mxCell id="1" parent="0" />
        <mxCell id="pQ6vgvGYBMZDXzOxaDLs-71" value="" style="rounded=0;whiteSpace=wrap;html=1;fillColor=#d5e8d4;strokeColor=#82b366;dashed=1;" vertex="1" parent="1">
          <mxGeometry x="360" y="150" width="290" height="50" as="geometry" />
        </mxCell>
        <mxCell id="pQ6vgvGYBMZDXzOxaDLs-34" value="" style="rounded=0;whiteSpace=wrap;html=1;fillColor=#dae8fc;strokeColor=#6c8ebf;dashed=1;" vertex="1" parent="1">
          <mxGeometry x="80" y="25" width="250" height="175" as="geometry" />
        </mxCell>
        <mxCell id="1ddhRvNa0F165m2_wmgl-12" style="edgeStyle=orthogonalEdgeStyle;rounded=0;orthogonalLoop=1;jettySize=auto;html=1;entryX=0;entryY=0.5;entryDx=0;entryDy=0;endSize=4;" edge="1" parent="1" source="1ddhRvNa0F165m2_wmgl-2" target="1ddhRvNa0F165m2_wmgl-3">
          <mxGeometry relative="1" as="geometry" />
        </mxCell>
        <mxCell id="1ddhRvNa0F165m2_wmgl-2" value="$$x$$" style="rounded=0;whiteSpace=wrap;html=1;" vertex="1" parent="1">
          <mxGeometry x="90" y="75" width="30" height="30" as="geometry" />
        </mxCell>
        <mxCell id="1ddhRvNa0F165m2_wmgl-38" style="edgeStyle=orthogonalEdgeStyle;rounded=0;orthogonalLoop=1;jettySize=auto;html=1;entryX=0;entryY=0.5;entryDx=0;entryDy=0;startArrow=none;endSize=4;" edge="1" parent="1" source="1ddhRvNa0F165m2_wmgl-20" target="1ddhRvNa0F165m2_wmgl-4">
          <mxGeometry relative="1" as="geometry" />
        </mxCell>
        <mxCell id="1ddhRvNa0F165m2_wmgl-3" value="$$F_ux$$" style="rounded=0;whiteSpace=wrap;html=1;" vertex="1" parent="1">
          <mxGeometry x="190" y="75" width="30" height="30" as="geometry" />
        </mxCell>
        <mxCell id="1ddhRvNa0F165m2_wmgl-41" style="edgeStyle=orthogonalEdgeStyle;rounded=0;orthogonalLoop=1;jettySize=auto;html=1;entryX=0.5;entryY=1;entryDx=0;entryDy=0;endSize=4;fillColor=#f8cecc;strokeColor=#b85450;dashed=1;" edge="1" parent="1" source="1ddhRvNa0F165m2_wmgl-4" target="1ddhRvNa0F165m2_wmgl-2">
          <mxGeometry relative="1" as="geometry">
            <Array as="points">
              <mxPoint x="305" y="120" />
              <mxPoint x="105" y="120" />
            </Array>
          </mxGeometry>
        </mxCell>
        <mxCell id="1ddhRvNa0F165m2_wmgl-4" value="$$y$$" style="rounded=0;whiteSpace=wrap;html=1;" vertex="1" parent="1">
          <mxGeometry x="290" y="75" width="30" height="30" as="geometry" />
        </mxCell>
        <mxCell id="1ddhRvNa0F165m2_wmgl-8" value="$$F_u$$" style="text;html=1;strokeColor=none;fillColor=none;align=center;verticalAlign=middle;whiteSpace=wrap;rounded=0;" vertex="1" parent="1">
          <mxGeometry x="140" y="65" width="25" height="20" as="geometry" />
        </mxCell>
        <mxCell id="1ddhRvNa0F165m2_wmgl-9" value="$$$$" style="text;html=1;strokeColor=none;fillColor=none;align=center;verticalAlign=middle;whiteSpace=wrap;rounded=0;" vertex="1" parent="1">
          <mxGeometry x="210" y="65" width="25" height="20" as="geometry" />
        </mxCell>
        <mxCell id="1ddhRvNa0F165m2_wmgl-39" value="" style="edgeStyle=orthogonalEdgeStyle;rounded=0;orthogonalLoop=1;jettySize=auto;html=1;entryX=0;entryY=0.5;entryDx=0;entryDy=0;endArrow=none;" edge="1" parent="1" source="1ddhRvNa0F165m2_wmgl-3" target="1ddhRvNa0F165m2_wmgl-20">
          <mxGeometry relative="1" as="geometry">
            <mxPoint x="220" y="90" as="sourcePoint" />
            <mxPoint x="290" y="90" as="targetPoint" />
          </mxGeometry>
        </mxCell>
        <mxCell id="1ddhRvNa0F165m2_wmgl-20" value="+" style="ellipse;whiteSpace=wrap;html=1;aspect=fixed;" vertex="1" parent="1">
          <mxGeometry x="245" y="85" width="10" height="10" as="geometry" />
        </mxCell>
        <mxCell id="pQ6vgvGYBMZDXzOxaDLs-2" style="edgeStyle=orthogonalEdgeStyle;rounded=0;orthogonalLoop=1;jettySize=auto;html=1;exitX=0.5;exitY=1;exitDx=0;exitDy=0;entryX=0.5;entryY=0;entryDx=0;entryDy=0;endSize=4;" edge="1" parent="1" source="pQ6vgvGYBMZDXzOxaDLs-1" target="1ddhRvNa0F165m2_wmgl-20">
          <mxGeometry relative="1" as="geometry">
            <Array as="points">
              <mxPoint x="250" y="70" />
              <mxPoint x="250" y="70" />
            </Array>
          </mxGeometry>
        </mxCell>
        <mxCell id="pQ6vgvGYBMZDXzOxaDLs-1" value="$$\delta$$" style="rounded=0;whiteSpace=wrap;html=1;" vertex="1" parent="1">
          <mxGeometry x="235" y="35" width="30" height="30" as="geometry" />
        </mxCell>
        <mxCell id="pQ6vgvGYBMZDXzOxaDLs-4" style="edgeStyle=orthogonalEdgeStyle;rounded=0;orthogonalLoop=1;jettySize=auto;html=1;exitX=0.5;exitY=0;exitDx=0;exitDy=0;endSize=4;dashed=1;" edge="1" parent="1" source="pQ6vgvGYBMZDXzOxaDLs-3">
          <mxGeometry relative="1" as="geometry">
            <mxPoint x="205" y="120" as="targetPoint" />
          </mxGeometry>
        </mxCell>
        <mxCell id="pQ6vgvGYBMZDXzOxaDLs-3" value="$$p(x)$$" style="ellipse;whiteSpace=wrap;html=1;aspect=fixed;" vertex="1" parent="1">
          <mxGeometry x="190" y="160" width="30" height="30" as="geometry" />
        </mxCell>
        <mxCell id="pQ6vgvGYBMZDXzOxaDLs-56" value="" style="rounded=0;whiteSpace=wrap;html=1;fillColor=#dae8fc;strokeColor=#6c8ebf;dashed=1;" vertex="1" parent="1">
          <mxGeometry x="360" y="25" width="290" height="105" as="geometry" />
        </mxCell>
        <mxCell id="pQ6vgvGYBMZDXzOxaDLs-57" style="edgeStyle=orthogonalEdgeStyle;rounded=0;orthogonalLoop=1;jettySize=auto;html=1;entryX=0;entryY=0.5;entryDx=0;entryDy=0;endSize=4;" edge="1" source="pQ6vgvGYBMZDXzOxaDLs-58" target="pQ6vgvGYBMZDXzOxaDLs-60" parent="1">
          <mxGeometry relative="1" as="geometry" />
        </mxCell>
        <mxCell id="pQ6vgvGYBMZDXzOxaDLs-58" value="$$x$$" style="rounded=0;whiteSpace=wrap;html=1;" vertex="1" parent="1">
          <mxGeometry x="410" y="75" width="30" height="30" as="geometry" />
        </mxCell>
        <mxCell id="pQ6vgvGYBMZDXzOxaDLs-59" style="edgeStyle=orthogonalEdgeStyle;rounded=0;orthogonalLoop=1;jettySize=auto;html=1;entryX=0;entryY=0.5;entryDx=0;entryDy=0;startArrow=none;endSize=4;" edge="1" source="pQ6vgvGYBMZDXzOxaDLs-66" target="pQ6vgvGYBMZDXzOxaDLs-62" parent="1">
          <mxGeometry relative="1" as="geometry" />
        </mxCell>
        <mxCell id="pQ6vgvGYBMZDXzOxaDLs-60" value="$$F_ux$$" style="rounded=0;whiteSpace=wrap;html=1;" vertex="1" parent="1">
          <mxGeometry x="510" y="75" width="30" height="30" as="geometry" />
        </mxCell>
        <mxCell id="pQ6vgvGYBMZDXzOxaDLs-61" style="edgeStyle=orthogonalEdgeStyle;rounded=0;orthogonalLoop=1;jettySize=auto;html=1;entryX=0.5;entryY=1;entryDx=0;entryDy=0;endSize=4;fillColor=#f8cecc;strokeColor=#b85450;dashed=1;" edge="1" source="pQ6vgvGYBMZDXzOxaDLs-62" target="pQ6vgvGYBMZDXzOxaDLs-58" parent="1">
          <mxGeometry relative="1" as="geometry">
            <Array as="points">
              <mxPoint x="625" y="120" />
              <mxPoint x="425" y="120" />
            </Array>
          </mxGeometry>
        </mxCell>
        <mxCell id="pQ6vgvGYBMZDXzOxaDLs-62" value="$$y$$" style="rounded=0;whiteSpace=wrap;html=1;" vertex="1" parent="1">
          <mxGeometry x="610" y="75" width="30" height="30" as="geometry" />
        </mxCell>
        <mxCell id="pQ6vgvGYBMZDXzOxaDLs-63" value="$$F_u$$" style="text;html=1;strokeColor=none;fillColor=none;align=center;verticalAlign=middle;whiteSpace=wrap;rounded=0;" vertex="1" parent="1">
          <mxGeometry x="460" y="65" width="25" height="20" as="geometry" />
        </mxCell>
        <mxCell id="pQ6vgvGYBMZDXzOxaDLs-64" value="$$$$" style="text;html=1;strokeColor=none;fillColor=none;align=center;verticalAlign=middle;whiteSpace=wrap;rounded=0;" vertex="1" parent="1">
          <mxGeometry x="530" y="65" width="25" height="20" as="geometry" />
        </mxCell>
        <mxCell id="pQ6vgvGYBMZDXzOxaDLs-65" value="" style="edgeStyle=orthogonalEdgeStyle;rounded=0;orthogonalLoop=1;jettySize=auto;html=1;entryX=0;entryY=0.5;entryDx=0;entryDy=0;endArrow=none;" edge="1" source="pQ6vgvGYBMZDXzOxaDLs-60" target="pQ6vgvGYBMZDXzOxaDLs-66" parent="1">
          <mxGeometry relative="1" as="geometry">
            <mxPoint x="540" y="90" as="sourcePoint" />
            <mxPoint x="610" y="90" as="targetPoint" />
          </mxGeometry>
        </mxCell>
        <mxCell id="pQ6vgvGYBMZDXzOxaDLs-66" value="+" style="ellipse;whiteSpace=wrap;html=1;aspect=fixed;" vertex="1" parent="1">
          <mxGeometry x="565" y="85" width="10" height="10" as="geometry" />
        </mxCell>
        <mxCell id="pQ6vgvGYBMZDXzOxaDLs-67" style="edgeStyle=orthogonalEdgeStyle;rounded=0;orthogonalLoop=1;jettySize=auto;html=1;exitX=0.5;exitY=1;exitDx=0;exitDy=0;entryX=0.5;entryY=0;entryDx=0;entryDy=0;endSize=4;" edge="1" source="pQ6vgvGYBMZDXzOxaDLs-68" target="pQ6vgvGYBMZDXzOxaDLs-66" parent="1">
          <mxGeometry relative="1" as="geometry">
            <Array as="points">
              <mxPoint x="570" y="70" />
              <mxPoint x="570" y="70" />
            </Array>
          </mxGeometry>
        </mxCell>
        <mxCell id="pQ6vgvGYBMZDXzOxaDLs-68" value="$$\delta$$" style="rounded=0;whiteSpace=wrap;html=1;" vertex="1" parent="1">
          <mxGeometry x="555" y="35" width="30" height="30" as="geometry" />
        </mxCell>
        <mxCell id="pQ6vgvGYBMZDXzOxaDLs-69" style="edgeStyle=orthogonalEdgeStyle;rounded=0;orthogonalLoop=1;jettySize=auto;html=1;exitX=0.5;exitY=0;exitDx=0;exitDy=0;endSize=4;dashed=1;" edge="1" source="pQ6vgvGYBMZDXzOxaDLs-70" parent="1">
          <mxGeometry relative="1" as="geometry">
            <mxPoint x="525" y="120" as="targetPoint" />
          </mxGeometry>
        </mxCell>
        <mxCell id="pQ6vgvGYBMZDXzOxaDLs-70" value="$$p(x)$$" style="ellipse;whiteSpace=wrap;html=1;aspect=fixed;" vertex="1" parent="1">
          <mxGeometry x="510" y="160" width="30" height="30" as="geometry" />
        </mxCell>
        <mxCell id="pQ6vgvGYBMZDXzOxaDLs-72" value="（a）同域中的贝叶斯磁共振重建过程" style="text;html=1;strokeColor=none;fillColor=none;align=center;verticalAlign=middle;whiteSpace=wrap;rounded=0;" vertex="1" parent="1">
          <mxGeometry x="80" y="200" width="250" height="20" as="geometry" />
        </mxCell>
        <mxCell id="pQ6vgvGYBMZDXzOxaDLs-73" value="（b）基于知识迁移的贝叶斯磁共振重建过程" style="text;html=1;strokeColor=none;fillColor=none;align=center;verticalAlign=middle;whiteSpace=wrap;rounded=0;" vertex="1" parent="1">
          <mxGeometry x="360" y="200" width="290" height="20" as="geometry" />
        </mxCell>
        <mxCell id="pQ6vgvGYBMZDXzOxaDLs-74" value="目标域" style="text;html=1;strokeColor=none;fillColor=none;align=center;verticalAlign=middle;whiteSpace=wrap;rounded=0;fontFamily=Times New Roman;fontSize=16;" vertex="1" parent="1">
          <mxGeometry x="364" y="25" width="50" height="30" as="geometry" />
        </mxCell>
        <mxCell id="pQ6vgvGYBMZDXzOxaDLs-75" value="源域" style="text;html=1;strokeColor=none;fillColor=none;align=center;verticalAlign=middle;whiteSpace=wrap;rounded=0;fontFamily=Times New Roman;fontSize=16;" vertex="1" parent="1">
          <mxGeometry x="364" y="150" width="50" height="30" as="geometry" />
        </mxCell>
        <mxCell id="pQ6vgvGYBMZDXzOxaDLs-76" value="迁移" style="text;html=1;strokeColor=none;fillColor=none;align=center;verticalAlign=middle;whiteSpace=wrap;rounded=0;" vertex="1" parent="1">
          <mxGeometry x="485" y="130" width="50" height="20" as="geometry" />
        </mxCell>
      </root>
    </mxGraphModel>
  </diagram>
  <diagram id="sunDUhaoRor8SrylCbnc" name="VAE-SVAE">
    <mxGraphModel dx="1050" dy="493" grid="1" gridSize="10" guides="1" tooltips="1" connect="1" arrows="1" fold="1" page="1" pageScale="1" pageWidth="827" pageHeight="1169" math="1" shadow="0">
      <root>
        <mxCell id="0" />
        <mxCell id="1" parent="0" />
        <mxCell id="sbtN62HqG2LySxRsdHqI-35" value="" style="rounded=0;whiteSpace=wrap;html=1;dashed=1;strokeColor=#666666;fontFamily=Times New Roman;fontSize=12;fillColor=#f5f5f5;fontColor=#333333;" vertex="1" parent="1">
          <mxGeometry x="21" y="300.75" width="629" height="359.25" as="geometry" />
        </mxCell>
        <mxCell id="sbtN62HqG2LySxRsdHqI-8" value="" style="rounded=0;whiteSpace=wrap;html=1;strokeColor=#000000;fontFamily=Times New Roman;fontSize=16;dashed=1;verticalAlign=bottom;" vertex="1" parent="1">
          <mxGeometry x="250" y="479" width="80" height="170" as="geometry" />
        </mxCell>
        <mxCell id="sbtN62HqG2LySxRsdHqI-26" style="edgeStyle=orthogonalEdgeStyle;rounded=0;orthogonalLoop=1;jettySize=auto;html=1;entryX=0.5;entryY=0;entryDx=0;entryDy=0;entryPerimeter=0;fontFamily=Times New Roman;fontSize=16;endSize=4;" edge="1" parent="1" source="sbtN62HqG2LySxRsdHqI-10" target="sbtN62HqG2LySxRsdHqI-19">
          <mxGeometry relative="1" as="geometry" />
        </mxCell>
        <mxCell id="sbtN62HqG2LySxRsdHqI-10" value="" style="rounded=0;whiteSpace=wrap;html=1;strokeColor=#000000;fontFamily=Times New Roman;fontSize=16;dashed=1;" vertex="1" parent="1">
          <mxGeometry x="250" y="310" width="80" height="130" as="geometry" />
        </mxCell>
        <mxCell id="dWcZ9m_A0bTVOxRtXLfp-13" style="edgeStyle=orthogonalEdgeStyle;rounded=0;orthogonalLoop=1;jettySize=auto;html=1;entryX=0;entryY=0.5;entryDx=0;entryDy=0;fontFamily=Times New Roman;fontSize=16;endSize=4;" edge="1" parent="1" source="dWcZ9m_A0bTVOxRtXLfp-6" target="dWcZ9m_A0bTVOxRtXLfp-11">
          <mxGeometry relative="1" as="geometry" />
        </mxCell>
        <mxCell id="dWcZ9m_A0bTVOxRtXLfp-6" value="$$x$$" style="html=1;whiteSpace=wrap;shape=isoCube2;backgroundOutline=1;isoAngle=15;rounded=0;strokeColor=#000000;fontFamily=Times New Roman;fontSize=16;" vertex="1" parent="1">
          <mxGeometry x="26" y="529" width="110" height="50" as="geometry" />
        </mxCell>
        <mxCell id="sbtN62HqG2LySxRsdHqI-13" style="edgeStyle=orthogonalEdgeStyle;rounded=0;orthogonalLoop=1;jettySize=auto;html=1;fontFamily=Times New Roman;fontSize=16;endSize=4;" edge="1" parent="1" source="dWcZ9m_A0bTVOxRtXLfp-11" target="dWcZ9m_A0bTVOxRtXLfp-19">
          <mxGeometry relative="1" as="geometry" />
        </mxCell>
        <mxCell id="sbtN62HqG2LySxRsdHqI-14" style="edgeStyle=orthogonalEdgeStyle;rounded=0;orthogonalLoop=1;jettySize=auto;html=1;entryX=0;entryY=0.5;entryDx=0;entryDy=0;entryPerimeter=0;fontFamily=Times New Roman;fontSize=16;endSize=4;" edge="1" parent="1" source="dWcZ9m_A0bTVOxRtXLfp-11" target="dWcZ9m_A0bTVOxRtXLfp-20">
          <mxGeometry relative="1" as="geometry" />
        </mxCell>
        <mxCell id="dWcZ9m_A0bTVOxRtXLfp-11" value="编码器" style="rounded=0;whiteSpace=wrap;html=1;strokeColor=#000000;fontFamily=Times New Roman;fontSize=16;" vertex="1" parent="1">
          <mxGeometry x="160" y="489" width="60" height="130" as="geometry" />
        </mxCell>
        <mxCell id="dWcZ9m_A0bTVOxRtXLfp-15" style="edgeStyle=orthogonalEdgeStyle;rounded=0;orthogonalLoop=1;jettySize=auto;html=1;entryX=0;entryY=0;entryDx=0;entryDy=25;entryPerimeter=0;fontFamily=Times New Roman;fontSize=16;endSize=4;" edge="1" parent="1" source="dWcZ9m_A0bTVOxRtXLfp-12" target="dWcZ9m_A0bTVOxRtXLfp-18">
          <mxGeometry relative="1" as="geometry">
            <mxPoint x="546" y="554" as="targetPoint" />
          </mxGeometry>
        </mxCell>
        <mxCell id="dWcZ9m_A0bTVOxRtXLfp-12" value="解码器" style="rounded=0;whiteSpace=wrap;html=1;strokeColor=#000000;fontFamily=Times New Roman;fontSize=16;" vertex="1" parent="1">
          <mxGeometry x="446" y="490.5" width="60" height="130" as="geometry" />
        </mxCell>
        <mxCell id="dWcZ9m_A0bTVOxRtXLfp-18" value="$$x$$" style="html=1;whiteSpace=wrap;shape=isoCube2;backgroundOutline=1;isoAngle=15;rounded=0;strokeColor=#000000;fontFamily=Times New Roman;fontSize=16;" vertex="1" parent="1">
          <mxGeometry x="531" y="530.5" width="110" height="50" as="geometry" />
        </mxCell>
        <mxCell id="dWcZ9m_A0bTVOxRtXLfp-19" value="" style="html=1;whiteSpace=wrap;shape=isoCube2;backgroundOutline=1;isoAngle=15;rounded=0;strokeColor=#000000;fontFamily=Times New Roman;fontSize=16;" vertex="1" parent="1">
          <mxGeometry x="260" y="485" width="60" height="72" as="geometry" />
        </mxCell>
        <mxCell id="dWcZ9m_A0bTVOxRtXLfp-20" value="" style="html=1;whiteSpace=wrap;shape=isoCube2;backgroundOutline=1;isoAngle=15;rounded=0;strokeColor=#000000;fontFamily=Times New Roman;fontSize=16;" vertex="1" parent="1">
          <mxGeometry x="260" y="557" width="60" height="72" as="geometry" />
        </mxCell>
        <mxCell id="sbtN62HqG2LySxRsdHqI-16" style="edgeStyle=orthogonalEdgeStyle;rounded=0;orthogonalLoop=1;jettySize=auto;html=1;entryX=0;entryY=0.5;entryDx=0;entryDy=0;fontFamily=Times New Roman;fontSize=16;endSize=4;" edge="1" parent="1" source="dWcZ9m_A0bTVOxRtXLfp-21" target="dWcZ9m_A0bTVOxRtXLfp-12">
          <mxGeometry relative="1" as="geometry" />
        </mxCell>
        <mxCell id="dWcZ9m_A0bTVOxRtXLfp-21" value="" style="html=1;whiteSpace=wrap;shape=isoCube2;backgroundOutline=1;isoAngle=15;rounded=0;strokeColor=#000000;fontFamily=Times New Roman;fontSize=16;" vertex="1" parent="1">
          <mxGeometry x="360" y="519.5" width="60" height="72" as="geometry" />
        </mxCell>
        <mxCell id="Cl1Xk8rUX3Bxcq_GzgNx-1" style="edgeStyle=orthogonalEdgeStyle;rounded=0;orthogonalLoop=1;jettySize=auto;html=1;entryX=0;entryY=0.5;entryDx=0;entryDy=0;fontFamily=Times New Roman;fontSize=16;endSize=4;" edge="1" source="Cl1Xk8rUX3Bxcq_GzgNx-2" target="Cl1Xk8rUX3Bxcq_GzgNx-4" parent="1">
          <mxGeometry relative="1" as="geometry" />
        </mxCell>
        <mxCell id="Cl1Xk8rUX3Bxcq_GzgNx-2" value="$$x$$" style="html=1;whiteSpace=wrap;shape=isoCube2;backgroundOutline=1;isoAngle=15;rounded=0;strokeColor=#000000;fontFamily=Times New Roman;fontSize=16;" vertex="1" parent="1">
          <mxGeometry x="26" y="350" width="110" height="50" as="geometry" />
        </mxCell>
        <mxCell id="sbtN62HqG2LySxRsdHqI-27" style="edgeStyle=orthogonalEdgeStyle;rounded=0;orthogonalLoop=1;jettySize=auto;html=1;entryX=0.5;entryY=0;entryDx=0;entryDy=0;entryPerimeter=0;fontFamily=Times New Roman;fontSize=16;endSize=4;" edge="1" parent="1" source="Cl1Xk8rUX3Bxcq_GzgNx-4" target="Cl1Xk8rUX3Bxcq_GzgNx-13">
          <mxGeometry relative="1" as="geometry" />
        </mxCell>
        <mxCell id="sbtN62HqG2LySxRsdHqI-28" style="edgeStyle=orthogonalEdgeStyle;rounded=0;orthogonalLoop=1;jettySize=auto;html=1;entryX=0.5;entryY=0;entryDx=0;entryDy=0;entryPerimeter=0;fontFamily=Times New Roman;fontSize=16;endSize=4;" edge="1" parent="1" source="Cl1Xk8rUX3Bxcq_GzgNx-4" target="sbtN62HqG2LySxRsdHqI-18">
          <mxGeometry relative="1" as="geometry" />
        </mxCell>
        <mxCell id="Cl1Xk8rUX3Bxcq_GzgNx-4" value="编码器" style="rounded=0;whiteSpace=wrap;html=1;strokeColor=#000000;fontFamily=Times New Roman;fontSize=16;" vertex="1" parent="1">
          <mxGeometry x="160" y="310" width="60" height="130" as="geometry" />
        </mxCell>
        <mxCell id="Cl1Xk8rUX3Bxcq_GzgNx-5" style="edgeStyle=orthogonalEdgeStyle;rounded=0;orthogonalLoop=1;jettySize=auto;html=1;entryX=0;entryY=0;entryDx=0;entryDy=25;entryPerimeter=0;fontFamily=Times New Roman;fontSize=16;endSize=4;" edge="1" source="Cl1Xk8rUX3Bxcq_GzgNx-6" target="Cl1Xk8rUX3Bxcq_GzgNx-7" parent="1">
          <mxGeometry relative="1" as="geometry">
            <mxPoint x="546" y="375" as="targetPoint" />
          </mxGeometry>
        </mxCell>
        <mxCell id="Cl1Xk8rUX3Bxcq_GzgNx-6" value="解码器" style="rounded=0;whiteSpace=wrap;html=1;strokeColor=#000000;fontFamily=Times New Roman;fontSize=16;" vertex="1" parent="1">
          <mxGeometry x="446" y="310" width="60" height="130" as="geometry" />
        </mxCell>
        <mxCell id="Cl1Xk8rUX3Bxcq_GzgNx-7" value="$$x$$" style="html=1;whiteSpace=wrap;shape=isoCube2;backgroundOutline=1;isoAngle=15;rounded=0;strokeColor=#000000;fontFamily=Times New Roman;fontSize=16;" vertex="1" parent="1">
          <mxGeometry x="531" y="350" width="110" height="50" as="geometry" />
        </mxCell>
        <mxCell id="Cl1Xk8rUX3Bxcq_GzgNx-13" value="" style="html=1;whiteSpace=wrap;shape=isoCube2;backgroundOutline=1;isoAngle=15;rounded=0;strokeColor=#000000;fontFamily=Times New Roman;fontSize=16;rotation=-90;" vertex="1" parent="1">
          <mxGeometry x="285" y="331" width="10" height="40" as="geometry" />
        </mxCell>
        <mxCell id="sbtN62HqG2LySxRsdHqI-2" value="$$\mu$$" style="text;html=1;strokeColor=none;fillColor=none;align=center;verticalAlign=middle;whiteSpace=wrap;rounded=0;fontSize=16;fontFamily=Times New Roman;" vertex="1" parent="1">
          <mxGeometry x="260" y="484" width="60" height="30" as="geometry" />
        </mxCell>
        <mxCell id="sbtN62HqG2LySxRsdHqI-3" value="$$b$$" style="text;html=1;strokeColor=none;fillColor=none;align=center;verticalAlign=middle;whiteSpace=wrap;rounded=0;fontSize=16;fontFamily=Times New Roman;" vertex="1" parent="1">
          <mxGeometry x="260" y="559" width="60" height="30" as="geometry" />
        </mxCell>
        <mxCell id="sbtN62HqG2LySxRsdHqI-4" value="$$\mu$$" style="text;html=1;strokeColor=none;fillColor=none;align=center;verticalAlign=middle;whiteSpace=wrap;rounded=0;fontSize=16;fontFamily=Times New Roman;" vertex="1" parent="1">
          <mxGeometry x="260" y="317" width="60" height="30" as="geometry" />
        </mxCell>
        <mxCell id="sbtN62HqG2LySxRsdHqI-5" value="$$\sigma$$" style="text;html=1;strokeColor=none;fillColor=none;align=center;verticalAlign=middle;whiteSpace=wrap;rounded=0;fontSize=16;fontFamily=Times New Roman;" vertex="1" parent="1">
          <mxGeometry x="260" y="365" width="60" height="30" as="geometry" />
        </mxCell>
        <mxCell id="sbtN62HqG2LySxRsdHqI-6" value="$$z$$" style="text;html=1;strokeColor=none;fillColor=none;align=center;verticalAlign=middle;whiteSpace=wrap;rounded=0;fontSize=16;fontFamily=Times New Roman;" vertex="1" parent="1">
          <mxGeometry x="360" y="339" width="60" height="30" as="geometry" />
        </mxCell>
        <mxCell id="sbtN62HqG2LySxRsdHqI-7" value="$$z$$" style="text;html=1;strokeColor=none;fillColor=none;align=center;verticalAlign=middle;whiteSpace=wrap;rounded=0;fontSize=16;fontFamily=Times New Roman;" vertex="1" parent="1">
          <mxGeometry x="360" y="516.5" width="60" height="30" as="geometry" />
        </mxCell>
        <mxCell id="sbtN62HqG2LySxRsdHqI-18" value="" style="html=1;whiteSpace=wrap;shape=isoCube2;backgroundOutline=1;isoAngle=15;rounded=0;strokeColor=#000000;fontFamily=Times New Roman;fontSize=16;rotation=-90;" vertex="1" parent="1">
          <mxGeometry x="285" y="381" width="10" height="40" as="geometry" />
        </mxCell>
        <mxCell id="sbtN62HqG2LySxRsdHqI-31" style="edgeStyle=orthogonalEdgeStyle;rounded=0;orthogonalLoop=1;jettySize=auto;html=1;exitX=0.5;exitY=1;exitDx=0;exitDy=0;exitPerimeter=0;fontFamily=Times New Roman;fontSize=16;endSize=4;" edge="1" parent="1" source="sbtN62HqG2LySxRsdHqI-19" target="Cl1Xk8rUX3Bxcq_GzgNx-6">
          <mxGeometry relative="1" as="geometry" />
        </mxCell>
        <mxCell id="sbtN62HqG2LySxRsdHqI-19" value="" style="html=1;whiteSpace=wrap;shape=isoCube2;backgroundOutline=1;isoAngle=15;rounded=0;strokeColor=#000000;fontFamily=Times New Roman;fontSize=16;rotation=-90;" vertex="1" parent="1">
          <mxGeometry x="385" y="355" width="10" height="40" as="geometry" />
        </mxCell>
        <mxCell id="sbtN62HqG2LySxRsdHqI-22" value="$$La(\mu,b)$$" style="text;html=1;strokeColor=none;fillColor=none;align=center;verticalAlign=middle;whiteSpace=wrap;rounded=0;fontSize=16;fontFamily=Times New Roman;" vertex="1" parent="1">
          <mxGeometry x="255" y="629" width="75" height="20" as="geometry" />
        </mxCell>
        <mxCell id="sbtN62HqG2LySxRsdHqI-23" value="$$N(\mu,\sigma)$$" style="text;html=1;strokeColor=none;fillColor=none;align=center;verticalAlign=middle;whiteSpace=wrap;rounded=0;fontSize=16;fontFamily=Times New Roman;" vertex="1" parent="1">
          <mxGeometry x="252.5" y="420" width="75" height="20" as="geometry" />
        </mxCell>
        <mxCell id="sbtN62HqG2LySxRsdHqI-30" style="edgeStyle=orthogonalEdgeStyle;rounded=0;orthogonalLoop=1;jettySize=auto;html=1;entryX=0;entryY=0.5;entryDx=0;entryDy=0;fontFamily=Times New Roman;fontSize=16;endSize=4;exitX=1.01;exitY=0.434;exitDx=0;exitDy=0;exitPerimeter=0;" edge="1" parent="1" source="sbtN62HqG2LySxRsdHqI-8">
          <mxGeometry relative="1" as="geometry">
            <mxPoint x="320" y="553.5" as="sourcePoint" />
            <mxPoint x="360" y="553.5" as="targetPoint" />
          </mxGeometry>
        </mxCell>
        <mxCell id="sbtN62HqG2LySxRsdHqI-33" value="&lt;font style=&quot;font-size: 16px;&quot;&gt;采样&lt;/font&gt;" style="text;html=1;strokeColor=none;fillColor=none;align=center;verticalAlign=middle;whiteSpace=wrap;rounded=0;fontSize=16;fontFamily=Times New Roman;" vertex="1" parent="1">
          <mxGeometry x="316" y="570" width="60" height="30" as="geometry" />
        </mxCell>
        <mxCell id="sbtN62HqG2LySxRsdHqI-34" value="&lt;font style=&quot;font-size: 16px;&quot;&gt;采样&lt;/font&gt;" style="text;html=1;strokeColor=none;fillColor=none;align=center;verticalAlign=middle;whiteSpace=wrap;rounded=0;fontSize=16;fontFamily=Times New Roman;" vertex="1" parent="1">
          <mxGeometry x="320" y="381" width="60" height="30" as="geometry" />
        </mxCell>
        <mxCell id="sbtN62HqG2LySxRsdHqI-36" value="" style="endArrow=none;html=1;rounded=0;fontFamily=Times New Roman;fontSize=12;endSize=4;entryX=1;entryY=0.5;entryDx=0;entryDy=0;exitX=0;exitY=0.5;exitDx=0;exitDy=0;dashed=1;" edge="1" parent="1">
          <mxGeometry width="50" height="50" relative="1" as="geometry">
            <mxPoint x="21" y="466.5" as="sourcePoint" />
            <mxPoint x="650" y="466.5" as="targetPoint" />
          </mxGeometry>
        </mxCell>
        <mxCell id="sbtN62HqG2LySxRsdHqI-37" value="稀疏化的变分自编码器（SVAE）" style="text;html=1;strokeColor=none;fillColor=none;align=center;verticalAlign=middle;whiteSpace=wrap;rounded=0;fontSize=16;fontFamily=Times New Roman;" vertex="1" parent="1">
          <mxGeometry x="410" y="635" width="240" height="30" as="geometry" />
        </mxCell>
        <mxCell id="sbtN62HqG2LySxRsdHqI-38" value="变分自编码器（VAE）" style="text;html=1;strokeColor=none;fillColor=none;align=center;verticalAlign=middle;whiteSpace=wrap;rounded=0;fontSize=16;fontFamily=Times New Roman;" vertex="1" parent="1">
          <mxGeometry x="460" y="440" width="190" height="30" as="geometry" />
        </mxCell>
      </root>
    </mxGraphModel>
  </diagram>
</mxfile>
